[PROGRAM]
program_id=1
program_num=1
nb_streams=2
pmt_pid=4096
pcr_pid=256
start_pts=1433367
start_time=1.433367
end_pts=52751300
end_time=52.751300
TAG:service_name=Ram
TAG:service_provider=FFmpeg
[STREAM]
index=0
codec_name=mpeg2video
codec_long_name=MPEG-2 video
profile=Main
codec_type=video
codec_time_base=1001/30000
codec_tag_string=[2][0][0][0]
codec_tag=0x0002
width=720
height=480
coded_width=0
coded_height=0
has_b_frames=1
sample_aspect_ratio=32:27
display_aspect_ratio=16:9
pix_fmt=yuv420p
level=8
color_range=tv
color_space=unknown
color_transfer=unknown
color_primaries=unknown
chroma_location=left
field_order=progressive
timecode=N/A
refs=1
id=0x100
r_frame_rate=30000/1001
avg_frame_rate=30000/1001
time_base=1/90000
start_pts=129003
start_time=1.433367
duration_ts=4618614
duration=51.317933
bit_rate=N/A
max_bit_rate=N/A
bits_per_raw_sample=N/A
nb_frames=N/A
nb_read_frames=N/A
nb_read_packets=N/A
DISPOSITION:default=0
DISPOSITION:dub=0
DISPOSITION:original=0
DISPOSITION:comment=0
DISPOSITION:lyrics=0
DISPOSITION:karaoke=0
DISPOSITION:forced=0
DISPOSITION:hearing_impaired=0
DISPOSITION:visual_impaired=0
DISPOSITION:clean_effects=0
DISPOSITION:attached_pic=0
DISPOSITION:timed_thumbnails=0
[/STREAM]
[STREAM]
index=1
codec_name=mp2
codec_long_name=MP2 (MPEG audio layer 2)
profile=unknown
codec_type=audio
codec_time_base=1/48000
codec_tag_string=[3][0][0][0]
codec_tag=0x0003
sample_fmt=s16p
sample_rate=48000
channels=2
channel_layout=stereo
bits_per_sample=0
id=0x101
r_frame_rate=0/0
avg_frame_rate=0/0
time_base=1/90000
start_pts=131647
start_time=1.462744
duration_ts=4608720
duration=51.208000
bit_rate=384000
max_bit_rate=N/A
bits_per_raw_sample=N/A
nb_frames=N/A
nb_read_frames=N/A
nb_read_packets=N/A
DISPOSITION:default=0
DISPOSITION:dub=0
DISPOSITION:original=0
DISPOSITION:comment=0
DISPOSITION:lyrics=0
DISPOSITION:karaoke=0
DISPOSITION:forced=0
DISPOSITION:hearing_impaired=0
DISPOSITION:visual_impaired=0
DISPOSITION:clean_effects=0
DISPOSITION:attached_pic=0
DISPOSITION:timed_thumbnails=0
[/STREAM]
[/PROGRAM]
[PROGRAM]
program_id=2
program_num=2
nb_streams=2
pmt_pid=4097
pcr_pid=258
start_pts=1433367
start_time=1.433367
end_pts=52751300
end_time=52.751300
TAG:service_name=Linc
TAG:service_provider=FFmpeg
[STREAM]
index=2
codec_name=mpeg2video
codec_long_name=MPEG-2 video
profile=Main
codec_type=video
codec_time_base=1001/30000
codec_tag_string=[2][0][0][0]
codec_tag=0x0002
width=720
height=480
coded_width=0
coded_height=0
has_b_frames=1
sample_aspect_ratio=32:27
display_aspect_ratio=16:9
pix_fmt=yuv420p
level=8
color_range=tv
color_space=unknown
color_transfer=unknown
color_primaries=unknown
chroma_location=left
field_order=progressive
timecode=N/A
refs=1
id=0x102
r_frame_rate=30000/1001
avg_frame_rate=30000/1001
time_base=1/90000
start_pts=129003
start_time=1.433367
duration_ts=4618614
duration=51.317933
bit_rate=N/A
max_bit_rate=N/A
bits_per_raw_sample=N/A
nb_frames=N/A
nb_read_frames=N/A
nb_read_packets=N/A
DISPOSITION:default=0
DISPOSITION:dub=0
DISPOSITION:original=0
DISPOSITION:comment=0
DISPOSITION:lyrics=0
DISPOSITION:karaoke=0
DISPOSITION:forced=0
DISPOSITION:hearing_impaired=0
DISPOSITION:visual_impaired=0
DISPOSITION:clean_effects=0
DISPOSITION:attached_pic=0
DISPOSITION:timed_thumbnails=0
[/STREAM]
[STREAM]
index=3
codec_name=mp2
codec_long_name=MP2 (MPEG audio layer 2)
profile=unknown
codec_type=audio
codec_time_base=1/48000
codec_tag_string=[3][0][0][0]
codec_tag=0x0003
sample_fmt=s16p
sample_rate=48000
channels=2
channel_layout=stereo
bits_per_sample=0
id=0x103
r_frame_rate=0/0
avg_frame_rate=0/0
time_base=1/90000
start_pts=131647
start_time=1.462744
duration_ts=4608720
duration=51.208000
bit_rate=384000
max_bit_rate=N/A
bits_per_raw_sample=N/A
nb_frames=N/A
nb_read_frames=N/A
nb_read_packets=N/A
DISPOSITION:default=0
DISPOSITION:dub=0
DISPOSITION:original=0
DISPOSITION:comment=0
DISPOSITION:lyrics=0
DISPOSITION:karaoke=0
DISPOSITION:forced=0
DISPOSITION:hearing_impaired=0
DISPOSITION:visual_impaired=0
DISPOSITION:clean_effects=0
DISPOSITION:attached_pic=0
DISPOSITION:timed_thumbnails=0
[/STREAM]
[/PROGRAM]
[PROGRAM]
program_id=3
program_num=3
nb_streams=2
pmt_pid=4098
pcr_pid=260
start_pts=1433367
start_time=1.433367
end_pts=52751300
end_time=52.751300
TAG:service_name=Bush
TAG:service_provider=FFmpeg
[STREAM]
index=4
codec_name=mpeg2video
codec_long_name=MPEG-2 video
profile=Main
codec_type=video
codec_time_base=1001/30000
codec_tag_string=[2][0][0][0]
codec_tag=0x0002
width=720
height=480
coded_width=0
coded_height=0
has_b_frames=1
sample_aspect_ratio=32:27
display_aspect_ratio=16:9
pix_fmt=yuv420p
level=8
color_range=tv
color_space=unknown
color_transfer=unknown
color_primaries=unknown
chroma_location=left
field_order=progressive
timecode=N/A
refs=1
id=0x104
r_frame_rate=30000/1001
avg_frame_rate=30000/1001
time_base=1/90000
start_pts=129003
start_time=1.433367
duration_ts=4618614
duration=51.317933
bit_rate=N/A
max_bit_rate=N/A
bits_per_raw_sample=N/A
nb_frames=N/A
nb_read_frames=N/A
nb_read_packets=N/A
DISPOSITION:default=0
DISPOSITION:dub=0
DISPOSITION:original=0
DISPOSITION:comment=0
DISPOSITION:lyrics=0
DISPOSITION:karaoke=0
DISPOSITION:forced=0
DISPOSITION:hearing_impaired=0
DISPOSITION:visual_impaired=0
DISPOSITION:clean_effects=0
DISPOSITION:attached_pic=0
DISPOSITION:timed_thumbnails=0
[/STREAM]
[STREAM]
index=5
codec_name=mp2
codec_long_name=MP2 (MPEG audio layer 2)
profile=unknown
codec_type=audio
codec_time_base=1/48000
codec_tag_string=[3][0][0][0]
codec_tag=0x0003
sample_fmt=s16p
sample_rate=48000
channels=2
channel_layout=stereo
bits_per_sample=0
id=0x105
r_frame_rate=0/0
avg_frame_rate=0/0
time_base=1/90000
start_pts=131647
start_time=1.462744
duration_ts=4608720
duration=51.208000
bit_rate=384000
max_bit_rate=N/A
bits_per_raw_sample=N/A
nb_frames=N/A
nb_read_frames=N/A
nb_read_packets=N/A
DISPOSITION:default=0
DISPOSITION:dub=0
DISPOSITION:original=0
DISPOSITION:comment=0
DISPOSITION:lyrics=0
DISPOSITION:karaoke=0
DISPOSITION:forced=0
DISPOSITION:hearing_impaired=0
DISPOSITION:visual_impaired=0
DISPOSITION:clean_effects=0
DISPOSITION:attached_pic=0
DISPOSITION:timed_thumbnails=0
[/STREAM]
[/PROGRAM]
